<?xml version="1.0" encoding="UTF-8" standalone="no"?>
<!DOCTYPE svg PUBLIC "-//W3C//DTD SVG 1.1//EN"
 "http://www.w3.org/Graphics/SVG/1.1/DTD/svg11.dtd">
<!-- Generated by graphviz version 2.40.1 (20161225.0304)
 -->
<!-- Title: md_pi_monitora_processos Pages: 1 -->
<svg width="462pt" height="682pt"
 viewBox="0.00 0.00 462.00 682.00" xmlns="http://www.w3.org/2000/svg" xmlns:xlink="http://www.w3.org/1999/xlink">
<g id="graph0" class="graph" transform="scale(1 1) rotate(0) translate(4 678)">
<title>md_pi_monitora_processos</title>
<polygon fill="#ffffff" stroke="transparent" points="-4,4 -4,-678 458,-678 458,4 -4,4"/>
<!-- md_pi_monitora_processos -->
<g id="node1" class="node">
<title>md_pi_monitora_processos</title>
<polygon fill="#efefef" stroke="transparent" points="46,-592.5 46,-627.5 408,-627.5 408,-592.5 46,-592.5"/>
<polygon fill="none" stroke="#000000" points="46,-592.5 46,-627.5 408,-627.5 408,-592.5 46,-592.5"/>
<text text-anchor="start" x="52.696" y="-605.3" font-family="Arial Bold" font-size="18.00" fill="#000000">md_pi_monitora_processos</text>
<text text-anchor="start" x="273.736" y="-605.3" font-family="Arial" font-size="14.00" fill="#000000">    </text>
<text text-anchor="start" x="307.9408" y="-605.3" font-family="Arial" font-size="14.00" fill="#666666">[BASE TABLE]</text>
<polygon fill="none" stroke="#000000" points="46,-562.5 46,-592.5 408,-592.5 408,-562.5 46,-562.5"/>
<text text-anchor="start" x="53" y="-573.9" font-family="Arial" font-size="14.00" fill="#000000">id_md_pi_monitora_processos </text>
<text text-anchor="start" x="247.4824" y="-573.9" font-family="Arial" font-size="14.00" fill="#666666">[bigint(20)]</text>
<polygon fill="none" stroke="#000000" points="46,-532.5 46,-562.5 408,-562.5 408,-532.5 46,-532.5"/>
<text text-anchor="start" x="53" y="-543.9" font-family="Arial" font-size="14.00" fill="#000000">id_atividade </text>
<text text-anchor="start" x="131.5792" y="-543.9" font-family="Arial" font-size="14.00" fill="#666666">[int(11)]</text>
<polygon fill="none" stroke="#000000" points="46,-502.5 46,-532.5 408,-532.5 408,-502.5 46,-502.5"/>
<text text-anchor="start" x="53" y="-513.9" font-family="Arial" font-size="14.00" fill="#000000">dth_cadastro </text>
<text text-anchor="start" x="137.8106" y="-513.9" font-family="Arial" font-size="14.00" fill="#666666">[datetime]</text>
<polygon fill="none" stroke="#000000" points="46,-472.5 46,-502.5 408,-502.5 408,-472.5 46,-472.5"/>
<text text-anchor="start" x="53" y="-483.9" font-family="Arial" font-size="14.00" fill="#000000">id_md_pi_pacote_envio </text>
<text text-anchor="start" x="204.718" y="-483.9" font-family="Arial" font-size="14.00" fill="#666666">[bigint(20)]</text>
<polygon fill="none" stroke="#000000" stroke-width="3" points="44.5,-471.5 44.5,-629.5 409.5,-629.5 409.5,-471.5 44.5,-471.5"/>
</g>
<!-- md_pi_pacote_envio -->
<g id="node2" class="node">
<title>md_pi_pacote_envio</title>
<polygon fill="#efefef" stroke="transparent" points="73,-312.5 73,-347.5 380,-347.5 380,-312.5 73,-312.5"/>
<polygon fill="none" stroke="#000000" points="73,-312.5 73,-347.5 380,-347.5 380,-312.5 73,-312.5"/>
<text text-anchor="start" x="79.6874" y="-325.3" font-family="Arial Bold" font-size="18.00" fill="#000000">md_pi_pacote_envio</text>
<text text-anchor="start" x="245.7446" y="-325.3" font-family="Arial" font-size="14.00" fill="#000000">    </text>
<text text-anchor="start" x="279.9494" y="-325.3" font-family="Arial" font-size="14.00" fill="#666666">[BASE TABLE]</text>
<polygon fill="none" stroke="#000000" points="73,-282.5 73,-312.5 380,-312.5 380,-282.5 73,-282.5"/>
<text text-anchor="start" x="80" y="-293.9" font-family="Arial" font-size="14.00" fill="#000000">id_md_pi_pacote_envio    </text>
<text text-anchor="start" x="262.0322" y="-293.9" font-family="Arial" font-size="14.00" fill="#666666">[bigint(20)]</text>
<polygon fill="none" stroke="#000000" points="73,-252.5 73,-282.5 380,-282.5 380,-252.5 73,-252.5"/>
<text text-anchor="start" x="80" y="-263.9" font-family="Arial" font-size="14.00" fill="#000000">id_protocolo    </text>
<text text-anchor="start" x="190.4474" y="-263.9" font-family="Arial" font-size="14.00" fill="#666666">[bigint(20)]</text>
<polygon fill="none" stroke="#000000" points="73,-222.5 73,-252.5 380,-252.5 380,-222.5 73,-222.5"/>
<text text-anchor="start" x="80" y="-233.9" font-family="Arial" font-size="14.00" fill="#000000">dth_metadados    </text>
<text text-anchor="start" x="210.69" y="-233.9" font-family="Arial" font-size="14.00" fill="#666666">[datetime]</text>
<polygon fill="none" stroke="#000000" points="73,-192.5 73,-222.5 380,-222.5 380,-192.5 73,-192.5"/>
<text text-anchor="start" x="80" y="-203.9" font-family="Arial" font-size="14.00" fill="#000000">dth_situacao    </text>
<text text-anchor="start" x="193.5708" y="-203.9" font-family="Arial" font-size="14.00" fill="#666666">[datetime]</text>
<polygon fill="none" stroke="#000000" points="73,-162.5 73,-192.5 380,-192.5 380,-162.5 73,-162.5"/>
<text text-anchor="start" x="80" y="-173.9" font-family="Arial" font-size="14.00" fill="#000000">sta_integracao    </text>
<text text-anchor="start" x="206.014" y="-173.9" font-family="Arial" font-size="14.00" fill="#666666">[char(2)]</text>
<polygon fill="none" stroke="#000000" points="73,-132.5 73,-162.5 380,-162.5 380,-132.5 73,-132.5"/>
<text text-anchor="start" x="80" y="-143.9" font-family="Arial" font-size="14.00" fill="#000000">arquivo_metadados    </text>
<text text-anchor="start" x="237.1318" y="-143.9" font-family="Arial" font-size="14.00" fill="#666666">[longtext]</text>
<polygon fill="none" stroke="#000000" points="73,-102.5 73,-132.5 380,-132.5 380,-102.5 73,-102.5"/>
<text text-anchor="start" x="80" y="-113.9" font-family="Arial" font-size="14.00" fill="#000000">arquivo_erro    </text>
<text text-anchor="start" x="192.7714" y="-113.9" font-family="Arial" font-size="14.00" fill="#666666">[longtext]</text>
<polygon fill="none" stroke="#000000" points="73,-72.5 73,-102.5 380,-102.5 380,-72.5 73,-72.5"/>
<text text-anchor="start" x="80" y="-83.9" font-family="Arial" font-size="14.00" fill="#000000">num_tentativas_envio    </text>
<text text-anchor="start" x="250.359" y="-83.9" font-family="Arial" font-size="14.00" fill="#666666">[int(11)]</text>
<polygon fill="none" stroke="#000000" points="73,-42.5 73,-72.5 380,-72.5 380,-42.5 73,-42.5"/>
<text text-anchor="start" x="80" y="-53.9" font-family="Arial" font-size="14.00" fill="#000000">dth_agendamento_executado    </text>
<text text-anchor="start" x="299.4066" y="-53.9" font-family="Arial" font-size="14.00" fill="#666666">[datetime]</text>
</g>
<!-- md_pi_monitora_processos&#45;&gt;md_pi_pacote_envio -->
<g id="edge1" class="edge">
<title>md_pi_monitora_processos:id_md_pi_pacote_envio&#45;&gt;md_pi_pacote_envio:id_md_pi_pacote_envio</title>
<path fill="none" stroke="#000000" d="M227.7889,-462.1747C237.893,-401.1657 342.2798,-453.8307 380,-391 401.3892,-355.3718 421.5556,-297.5 380,-297.5"/>
<polygon fill="#000000" stroke="#000000" points="227.7619,-462.5291 222.5131,-472.1571 227.381,-467.5145 227,-472.5 227,-472.5 227,-472.5 227.381,-467.5145 231.4869,-472.8429 227.7619,-462.5291 227.7619,-462.5291"/>
</g>
</g>
</svg>
