<?xml version="1.0" encoding="UTF-8" standalone="no"?>
<!DOCTYPE svg PUBLIC "-//W3C//DTD SVG 1.1//EN"
 "http://www.w3.org/Graphics/SVG/1.1/DTD/svg11.dtd">
<!-- Generated by graphviz version 2.40.1 (20161225.0304)
 -->
<!-- Title: md_pi_pacote_envio Pages: 1 -->
<svg width="456pt" height="682pt"
 viewBox="0.00 0.00 456.00 682.00" xmlns="http://www.w3.org/2000/svg" xmlns:xlink="http://www.w3.org/1999/xlink">
<g id="graph0" class="graph" transform="scale(1 1) rotate(0) translate(4 678)">
<title>md_pi_pacote_envio</title>
<polygon fill="#ffffff" stroke="transparent" points="-4,4 -4,-678 452,-678 452,4 -4,4"/>
<!-- md_pi_pacote_envio -->
<g id="node1" class="node">
<title>md_pi_pacote_envio</title>
<polygon fill="#efefef" stroke="transparent" points="70,-315.5 70,-350.5 377,-350.5 377,-315.5 70,-315.5"/>
<polygon fill="none" stroke="#000000" points="70,-315.5 70,-350.5 377,-350.5 377,-315.5 70,-315.5"/>
<text text-anchor="start" x="76.6874" y="-328.3" font-family="Arial Bold" font-size="18.00" fill="#000000">md_pi_pacote_envio</text>
<text text-anchor="start" x="242.7446" y="-328.3" font-family="Arial" font-size="14.00" fill="#000000">    </text>
<text text-anchor="start" x="276.9494" y="-328.3" font-family="Arial" font-size="14.00" fill="#666666">[BASE TABLE]</text>
<polygon fill="none" stroke="#000000" points="70,-285.5 70,-315.5 377,-315.5 377,-285.5 70,-285.5"/>
<text text-anchor="start" x="77" y="-296.9" font-family="Arial" font-size="14.00" fill="#000000">id_md_pi_pacote_envio </text>
<text text-anchor="start" x="228.718" y="-296.9" font-family="Arial" font-size="14.00" fill="#666666">[bigint(20)]</text>
<polygon fill="none" stroke="#000000" points="70,-255.5 70,-285.5 377,-285.5 377,-255.5 70,-255.5"/>
<text text-anchor="start" x="77" y="-266.9" font-family="Arial" font-size="14.00" fill="#000000">id_protocolo </text>
<text text-anchor="start" x="157.1332" y="-266.9" font-family="Arial" font-size="14.00" fill="#666666">[bigint(20)]</text>
<polygon fill="none" stroke="#000000" points="70,-225.5 70,-255.5 377,-255.5 377,-225.5 70,-225.5"/>
<text text-anchor="start" x="77" y="-236.9" font-family="Arial" font-size="14.00" fill="#000000">dth_metadados </text>
<text text-anchor="start" x="177.3758" y="-236.9" font-family="Arial" font-size="14.00" fill="#666666">[datetime]</text>
<polygon fill="none" stroke="#000000" points="70,-195.5 70,-225.5 377,-225.5 377,-195.5 70,-195.5"/>
<text text-anchor="start" x="77" y="-206.9" font-family="Arial" font-size="14.00" fill="#000000">dth_situacao </text>
<text text-anchor="start" x="160.2566" y="-206.9" font-family="Arial" font-size="14.00" fill="#666666">[datetime]</text>
<polygon fill="none" stroke="#000000" points="70,-165.5 70,-195.5 377,-195.5 377,-165.5 70,-165.5"/>
<text text-anchor="start" x="77" y="-176.9" font-family="Arial" font-size="14.00" fill="#000000">sta_integracao </text>
<text text-anchor="start" x="172.6998" y="-176.9" font-family="Arial" font-size="14.00" fill="#666666">[char(2)]</text>
<polygon fill="none" stroke="#000000" points="70,-135.5 70,-165.5 377,-165.5 377,-135.5 70,-135.5"/>
<text text-anchor="start" x="77" y="-146.9" font-family="Arial" font-size="14.00" fill="#000000">arquivo_metadados </text>
<text text-anchor="start" x="203.8176" y="-146.9" font-family="Arial" font-size="14.00" fill="#666666">[longtext]</text>
<polygon fill="none" stroke="#000000" points="70,-105.5 70,-135.5 377,-135.5 377,-105.5 70,-105.5"/>
<text text-anchor="start" x="77" y="-116.9" font-family="Arial" font-size="14.00" fill="#000000">arquivo_erro </text>
<text text-anchor="start" x="159.4572" y="-116.9" font-family="Arial" font-size="14.00" fill="#666666">[longtext]</text>
<polygon fill="none" stroke="#000000" points="70,-75.5 70,-105.5 377,-105.5 377,-75.5 70,-75.5"/>
<text text-anchor="start" x="77" y="-86.9" font-family="Arial" font-size="14.00" fill="#000000">num_tentativas_envio </text>
<text text-anchor="start" x="217.0448" y="-86.9" font-family="Arial" font-size="14.00" fill="#666666">[int(11)]</text>
<polygon fill="none" stroke="#000000" points="70,-45.5 70,-75.5 377,-75.5 377,-45.5 70,-45.5"/>
<text text-anchor="start" x="77" y="-56.9" font-family="Arial" font-size="14.00" fill="#000000">dth_agendamento_executado </text>
<text text-anchor="start" x="266.0924" y="-56.9" font-family="Arial" font-size="14.00" fill="#666666">[datetime]</text>
<polygon fill="none" stroke="#000000" stroke-width="3" points="68,-44.5 68,-352.5 378,-352.5 378,-44.5 68,-44.5"/>
</g>
<!-- md_pi_monitora_processos -->
<g id="node2" class="node">
<title>md_pi_monitora_processos</title>
<polygon fill="#efefef" stroke="transparent" points="43,-595.5 43,-630.5 405,-630.5 405,-595.5 43,-595.5"/>
<polygon fill="none" stroke="#000000" points="43,-595.5 43,-630.5 405,-630.5 405,-595.5 43,-595.5"/>
<text text-anchor="start" x="49.696" y="-608.3" font-family="Arial Bold" font-size="18.00" fill="#000000">md_pi_monitora_processos</text>
<text text-anchor="start" x="270.736" y="-608.3" font-family="Arial" font-size="14.00" fill="#000000">    </text>
<text text-anchor="start" x="304.9408" y="-608.3" font-family="Arial" font-size="14.00" fill="#666666">[BASE TABLE]</text>
<polygon fill="none" stroke="#000000" points="43,-565.5 43,-595.5 405,-595.5 405,-565.5 43,-565.5"/>
<text text-anchor="start" x="50" y="-576.9" font-family="Arial" font-size="14.00" fill="#000000">id_md_pi_monitora_processos    </text>
<text text-anchor="start" x="274.7966" y="-576.9" font-family="Arial" font-size="14.00" fill="#666666">[bigint(20)]</text>
<polygon fill="none" stroke="#000000" points="43,-535.5 43,-565.5 405,-565.5 405,-535.5 43,-535.5"/>
<text text-anchor="start" x="50" y="-546.9" font-family="Arial" font-size="14.00" fill="#000000">id_atividade    </text>
<text text-anchor="start" x="158.8934" y="-546.9" font-family="Arial" font-size="14.00" fill="#666666">[int(11)]</text>
<polygon fill="none" stroke="#000000" points="43,-505.5 43,-535.5 405,-535.5 405,-505.5 43,-505.5"/>
<text text-anchor="start" x="50" y="-516.9" font-family="Arial" font-size="14.00" fill="#000000">dth_cadastro    </text>
<text text-anchor="start" x="165.1248" y="-516.9" font-family="Arial" font-size="14.00" fill="#666666">[datetime]</text>
<polygon fill="none" stroke="#000000" points="43,-475.5 43,-505.5 405,-505.5 405,-475.5 43,-475.5"/>
<text text-anchor="start" x="50" y="-486.9" font-family="Arial" font-size="14.00" fill="#000000">id_md_pi_pacote_envio    </text>
<text text-anchor="start" x="232.0322" y="-486.9" font-family="Arial" font-size="14.00" fill="#666666">[bigint(20)]</text>
</g>
<!-- md_pi_monitora_processos&#45;&gt;md_pi_pacote_envio -->
<g id="edge1" class="edge">
<title>md_pi_monitora_processos:id_md_pi_pacote_envio&#45;&gt;md_pi_pacote_envio:id_md_pi_pacote_envio</title>
<path fill="none" stroke="#000000" d="M224.7877,-465.2716C234.8758,-404.9329 339.1035,-459.037 377,-397 399.358,-360.3997 419.8889,-300.5 377,-300.5"/>
<polygon fill="#000000" stroke="#000000" points="224.7679,-465.5295 219.5133,-475.1544 224.3839,-470.5148 224,-475.5 224,-475.5 224,-475.5 224.3839,-470.5148 228.4867,-475.8456 224.7679,-465.5295 224.7679,-465.5295"/>
</g>
</g>
</svg>
