<?xml version="1.0" encoding="UTF-8" standalone="no"?>
<!DOCTYPE svg PUBLIC "-//W3C//DTD SVG 1.1//EN"
 "http://www.w3.org/Graphics/SVG/1.1/DTD/svg11.dtd">
<!-- Generated by graphviz version 2.40.1 (20161225.0304)
 -->
<!-- Title: md_pi_parametros Pages: 1 -->
<svg width="391pt" height="255pt"
 viewBox="0.00 0.00 391.00 255.00" xmlns="http://www.w3.org/2000/svg" xmlns:xlink="http://www.w3.org/1999/xlink">
<g id="graph0" class="graph" transform="scale(1 1) rotate(0) translate(4 251)">
<title>md_pi_parametros</title>
<polygon fill="#ffffff" stroke="transparent" points="-4,4 -4,-251 387,-251 387,4 -4,4"/>
<!-- md_pi_parametros -->
<g id="node1" class="node">
<title>md_pi_parametros</title>
<polygon fill="#efefef" stroke="transparent" points="46.5,-165.5 46.5,-200.5 337.5,-200.5 337.5,-165.5 46.5,-165.5"/>
<polygon fill="none" stroke="#000000" points="46.5,-165.5 46.5,-200.5 337.5,-200.5 337.5,-165.5 46.5,-165.5"/>
<text text-anchor="start" x="53.2055" y="-178.3" font-family="Arial Bold" font-size="18.00" fill="#000000">md_pi_parametros</text>
<text text-anchor="start" x="203.2265" y="-178.3" font-family="Arial" font-size="14.00" fill="#000000">    </text>
<text text-anchor="start" x="237.4313" y="-178.3" font-family="Arial" font-size="14.00" fill="#666666">[BASE TABLE]</text>
<polygon fill="none" stroke="#000000" points="46.5,-135.5 46.5,-165.5 337.5,-165.5 337.5,-135.5 46.5,-135.5"/>
<text text-anchor="start" x="53.5" y="-146.9" font-family="Arial" font-size="14.00" fill="#000000">id_md_pi_parametros </text>
<text text-anchor="start" x="192.7454" y="-146.9" font-family="Arial" font-size="14.00" fill="#666666">[bigint(20)]</text>
<polygon fill="none" stroke="#000000" points="46.5,-105.5 46.5,-135.5 337.5,-135.5 337.5,-105.5 46.5,-105.5"/>
<text text-anchor="start" x="53.5" y="-116.9" font-family="Arial" font-size="14.00" fill="#000000">dth_ultimo_processamento </text>
<text text-anchor="start" x="225.4312" y="-116.9" font-family="Arial" font-size="14.00" fill="#666666">[datetime]</text>
<polygon fill="none" stroke="#000000" points="46.5,-75.5 46.5,-105.5 337.5,-105.5 337.5,-75.5 46.5,-75.5"/>
<text text-anchor="start" x="53.5" y="-86.9" font-family="Arial" font-size="14.00" fill="#000000">sin_executando_publicacao </text>
<text text-anchor="start" x="230.1226" y="-86.9" font-family="Arial" font-size="14.00" fill="#666666">[char(1)]</text>
<polygon fill="none" stroke="#000000" points="46.5,-45.5 46.5,-75.5 337.5,-75.5 337.5,-45.5 46.5,-45.5"/>
<text text-anchor="start" x="53.5" y="-56.9" font-family="Arial" font-size="14.00" fill="#000000">num_atividades_carregar </text>
<text text-anchor="start" x="215.3106" y="-56.9" font-family="Arial" font-size="14.00" fill="#666666">[int(11)]</text>
<polygon fill="none" stroke="#000000" stroke-width="3" points="44.5,-44.5 44.5,-202.5 338.5,-202.5 338.5,-44.5 44.5,-44.5"/>
</g>
</g>
</svg>
