<?xml version="1.0" encoding="UTF-8" standalone="no"?>
<!DOCTYPE svg PUBLIC "-//W3C//DTD SVG 1.1//EN"
 "http://www.w3.org/Graphics/SVG/1.1/DTD/svg11.dtd">
<!-- Generated by graphviz version 2.40.1 (20161225.0304)
 -->
<!-- Title: sei Pages: 1 -->
<svg width="1245pt" height="676pt"
 viewBox="0.00 0.00 1245.00 676.00" xmlns="http://www.w3.org/2000/svg" xmlns:xlink="http://www.w3.org/1999/xlink">
<g id="graph0" class="graph" transform="scale(1 1) rotate(0) translate(4 672)">
<title>sei</title>
<polygon fill="#ffffff" stroke="transparent" points="-4,4 -4,-672 1241,-672 1241,4 -4,4"/>
<!-- md_pi_mensagem -->
<g id="node1" class="node">
<title>md_pi_mensagem</title>
<polygon fill="#efefef" stroke="transparent" points="43.5,-589.5 43.5,-624.5 332.5,-624.5 332.5,-589.5 43.5,-589.5"/>
<polygon fill="none" stroke="#000000" points="43.5,-589.5 43.5,-624.5 332.5,-624.5 332.5,-589.5 43.5,-589.5"/>
<text text-anchor="start" x="50.2027" y="-602.3" font-family="Arial Bold" font-size="18.00" fill="#000000">md_pi_mensagem</text>
<text text-anchor="start" x="198.2293" y="-602.3" font-family="Arial" font-size="14.00" fill="#000000">    </text>
<text text-anchor="start" x="232.4341" y="-602.3" font-family="Arial" font-size="14.00" fill="#666666">[BASE TABLE]</text>
<polygon fill="none" stroke="#000000" points="43.5,-559.5 43.5,-589.5 332.5,-589.5 332.5,-559.5 43.5,-559.5"/>
<text text-anchor="start" x="50.5" y="-570.9" font-family="Arial" font-size="14.00" fill="#000000">id_md_pi_mensagem    </text>
<text text-anchor="start" x="218.5084" y="-570.9" font-family="Arial" font-size="14.00" fill="#666666">[bigint(20)]</text>
<polygon fill="none" stroke="#000000" points="43.5,-529.5 43.5,-559.5 332.5,-559.5 332.5,-529.5 43.5,-529.5"/>
<text text-anchor="start" x="50.5" y="-540.9" font-family="Arial" font-size="14.00" fill="#000000">id_tarefa    </text>
<text text-anchor="start" x="139.1662" y="-540.9" font-family="Arial" font-size="14.00" fill="#666666">[int(11)]</text>
<polygon fill="none" stroke="#000000" points="43.5,-499.5 43.5,-529.5 332.5,-529.5 332.5,-499.5 43.5,-499.5"/>
<text text-anchor="start" x="50.5" y="-510.9" font-family="Arial" font-size="14.00" fill="#000000">sin_publicar    </text>
<text text-anchor="start" x="159.3808" y="-510.9" font-family="Arial" font-size="14.00" fill="#666666">[char(1)]</text>
<polygon fill="none" stroke="#000000" points="43.5,-469.5 43.5,-499.5 332.5,-499.5 332.5,-469.5 43.5,-469.5"/>
<text text-anchor="start" x="50.5" y="-480.9" font-family="Arial" font-size="14.00" fill="#000000">mensagem_publicacao    </text>
<text text-anchor="start" x="228.6304" y="-480.9" font-family="Arial" font-size="14.00" fill="#666666">[varchar(255)]</text>
</g>
<!-- md_pi_monitora_processos -->
<g id="node2" class="node">
<title>md_pi_monitora_processos</title>
<polygon fill="#efefef" stroke="transparent" points="436.5,-589.5 436.5,-624.5 798.5,-624.5 798.5,-589.5 436.5,-589.5"/>
<polygon fill="none" stroke="#000000" points="436.5,-589.5 436.5,-624.5 798.5,-624.5 798.5,-589.5 436.5,-589.5"/>
<text text-anchor="start" x="443.196" y="-602.3" font-family="Arial Bold" font-size="18.00" fill="#000000">md_pi_monitora_processos</text>
<text text-anchor="start" x="664.236" y="-602.3" font-family="Arial" font-size="14.00" fill="#000000">    </text>
<text text-anchor="start" x="698.4408" y="-602.3" font-family="Arial" font-size="14.00" fill="#666666">[BASE TABLE]</text>
<polygon fill="none" stroke="#000000" points="436.5,-559.5 436.5,-589.5 798.5,-589.5 798.5,-559.5 436.5,-559.5"/>
<text text-anchor="start" x="443.5" y="-570.9" font-family="Arial" font-size="14.00" fill="#000000">id_md_pi_monitora_processos    </text>
<text text-anchor="start" x="668.2966" y="-570.9" font-family="Arial" font-size="14.00" fill="#666666">[bigint(20)]</text>
<polygon fill="none" stroke="#000000" points="436.5,-529.5 436.5,-559.5 798.5,-559.5 798.5,-529.5 436.5,-529.5"/>
<text text-anchor="start" x="443.5" y="-540.9" font-family="Arial" font-size="14.00" fill="#000000">id_atividade    </text>
<text text-anchor="start" x="552.3934" y="-540.9" font-family="Arial" font-size="14.00" fill="#666666">[int(11)]</text>
<polygon fill="none" stroke="#000000" points="436.5,-499.5 436.5,-529.5 798.5,-529.5 798.5,-499.5 436.5,-499.5"/>
<text text-anchor="start" x="443.5" y="-510.9" font-family="Arial" font-size="14.00" fill="#000000">dth_cadastro    </text>
<text text-anchor="start" x="558.6248" y="-510.9" font-family="Arial" font-size="14.00" fill="#666666">[datetime]</text>
<polygon fill="none" stroke="#000000" points="436.5,-469.5 436.5,-499.5 798.5,-499.5 798.5,-469.5 436.5,-469.5"/>
<text text-anchor="start" x="443.5" y="-480.9" font-family="Arial" font-size="14.00" fill="#000000">id_md_pi_pacote_envio    </text>
<text text-anchor="start" x="625.5322" y="-480.9" font-family="Arial" font-size="14.00" fill="#666666">[bigint(20)]</text>
</g>
<!-- md_pi_pacote_envio -->
<g id="node3" class="node">
<title>md_pi_pacote_envio</title>
<polygon fill="#efefef" stroke="transparent" points="463.5,-312.5 463.5,-347.5 770.5,-347.5 770.5,-312.5 463.5,-312.5"/>
<polygon fill="none" stroke="#000000" points="463.5,-312.5 463.5,-347.5 770.5,-347.5 770.5,-312.5 463.5,-312.5"/>
<text text-anchor="start" x="470.1874" y="-325.3" font-family="Arial Bold" font-size="18.00" fill="#000000">md_pi_pacote_envio</text>
<text text-anchor="start" x="636.2446" y="-325.3" font-family="Arial" font-size="14.00" fill="#000000">    </text>
<text text-anchor="start" x="670.4494" y="-325.3" font-family="Arial" font-size="14.00" fill="#666666">[BASE TABLE]</text>
<polygon fill="none" stroke="#000000" points="463.5,-282.5 463.5,-312.5 770.5,-312.5 770.5,-282.5 463.5,-282.5"/>
<text text-anchor="start" x="470.5" y="-293.9" font-family="Arial" font-size="14.00" fill="#000000">id_md_pi_pacote_envio    </text>
<text text-anchor="start" x="652.5322" y="-293.9" font-family="Arial" font-size="14.00" fill="#666666">[bigint(20)]</text>
<polygon fill="none" stroke="#000000" points="463.5,-252.5 463.5,-282.5 770.5,-282.5 770.5,-252.5 463.5,-252.5"/>
<text text-anchor="start" x="470.5" y="-263.9" font-family="Arial" font-size="14.00" fill="#000000">id_protocolo    </text>
<text text-anchor="start" x="580.9474" y="-263.9" font-family="Arial" font-size="14.00" fill="#666666">[bigint(20)]</text>
<polygon fill="none" stroke="#000000" points="463.5,-222.5 463.5,-252.5 770.5,-252.5 770.5,-222.5 463.5,-222.5"/>
<text text-anchor="start" x="470.5" y="-233.9" font-family="Arial" font-size="14.00" fill="#000000">dth_metadados    </text>
<text text-anchor="start" x="601.19" y="-233.9" font-family="Arial" font-size="14.00" fill="#666666">[datetime]</text>
<polygon fill="none" stroke="#000000" points="463.5,-192.5 463.5,-222.5 770.5,-222.5 770.5,-192.5 463.5,-192.5"/>
<text text-anchor="start" x="470.5" y="-203.9" font-family="Arial" font-size="14.00" fill="#000000">dth_situacao    </text>
<text text-anchor="start" x="584.0708" y="-203.9" font-family="Arial" font-size="14.00" fill="#666666">[datetime]</text>
<polygon fill="none" stroke="#000000" points="463.5,-162.5 463.5,-192.5 770.5,-192.5 770.5,-162.5 463.5,-162.5"/>
<text text-anchor="start" x="470.5" y="-173.9" font-family="Arial" font-size="14.00" fill="#000000">sta_integracao    </text>
<text text-anchor="start" x="596.514" y="-173.9" font-family="Arial" font-size="14.00" fill="#666666">[char(2)]</text>
<polygon fill="none" stroke="#000000" points="463.5,-132.5 463.5,-162.5 770.5,-162.5 770.5,-132.5 463.5,-132.5"/>
<text text-anchor="start" x="470.5" y="-143.9" font-family="Arial" font-size="14.00" fill="#000000">arquivo_metadados    </text>
<text text-anchor="start" x="627.6318" y="-143.9" font-family="Arial" font-size="14.00" fill="#666666">[longtext]</text>
<polygon fill="none" stroke="#000000" points="463.5,-102.5 463.5,-132.5 770.5,-132.5 770.5,-102.5 463.5,-102.5"/>
<text text-anchor="start" x="470.5" y="-113.9" font-family="Arial" font-size="14.00" fill="#000000">arquivo_erro    </text>
<text text-anchor="start" x="583.2714" y="-113.9" font-family="Arial" font-size="14.00" fill="#666666">[longtext]</text>
<polygon fill="none" stroke="#000000" points="463.5,-72.5 463.5,-102.5 770.5,-102.5 770.5,-72.5 463.5,-72.5"/>
<text text-anchor="start" x="470.5" y="-83.9" font-family="Arial" font-size="14.00" fill="#000000">num_tentativas_envio    </text>
<text text-anchor="start" x="640.859" y="-83.9" font-family="Arial" font-size="14.00" fill="#666666">[int(11)]</text>
<polygon fill="none" stroke="#000000" points="463.5,-42.5 463.5,-72.5 770.5,-72.5 770.5,-42.5 463.5,-42.5"/>
<text text-anchor="start" x="470.5" y="-53.9" font-family="Arial" font-size="14.00" fill="#000000">dth_agendamento_executado    </text>
<text text-anchor="start" x="689.9066" y="-53.9" font-family="Arial" font-size="14.00" fill="#666666">[datetime]</text>
</g>
<!-- md_pi_monitora_processos&#45;&gt;md_pi_pacote_envio -->
<g id="edge1" class="edge">
<title>md_pi_monitora_processos:id_md_pi_pacote_envio&#45;&gt;md_pi_pacote_envio:id_md_pi_pacote_envio</title>
<path fill="none" stroke="#000000" d="M618.2877,-459.2716C628.3758,-398.9329 732.6035,-453.037 770.5,-391 792.1629,-355.5376 812.0556,-297.5 770.5,-297.5"/>
<polygon fill="#000000" stroke="#000000" points="618.2679,-459.5295 613.0133,-469.1544 617.8839,-464.5148 617.5,-469.5 617.5,-469.5 617.5,-469.5 617.8839,-464.5148 621.9867,-469.8456 618.2679,-459.5295 618.2679,-459.5295"/>
</g>
<!-- md_pi_parametros -->
<g id="node4" class="node">
<title>md_pi_parametros</title>
<polygon fill="#efefef" stroke="transparent" points="903.5,-589.5 903.5,-624.5 1194.5,-624.5 1194.5,-589.5 903.5,-589.5"/>
<polygon fill="none" stroke="#000000" points="903.5,-589.5 903.5,-624.5 1194.5,-624.5 1194.5,-589.5 903.5,-589.5"/>
<text text-anchor="start" x="910.2055" y="-602.3" font-family="Arial Bold" font-size="18.00" fill="#000000">md_pi_parametros</text>
<text text-anchor="start" x="1060.2265" y="-602.3" font-family="Arial" font-size="14.00" fill="#000000">    </text>
<text text-anchor="start" x="1094.4313" y="-602.3" font-family="Arial" font-size="14.00" fill="#666666">[BASE TABLE]</text>
<polygon fill="none" stroke="#000000" points="903.5,-559.5 903.5,-589.5 1194.5,-589.5 1194.5,-559.5 903.5,-559.5"/>
<text text-anchor="start" x="910.5" y="-570.9" font-family="Arial" font-size="14.00" fill="#000000">id_md_pi_parametros    </text>
<text text-anchor="start" x="1080.0596" y="-570.9" font-family="Arial" font-size="14.00" fill="#666666">[bigint(20)]</text>
<polygon fill="none" stroke="#000000" points="903.5,-529.5 903.5,-559.5 1194.5,-559.5 1194.5,-529.5 903.5,-529.5"/>
<text text-anchor="start" x="910.5" y="-540.9" font-family="Arial" font-size="14.00" fill="#000000">dth_ultimo_processamento    </text>
<text text-anchor="start" x="1112.7454" y="-540.9" font-family="Arial" font-size="14.00" fill="#666666">[datetime]</text>
<polygon fill="none" stroke="#000000" points="903.5,-499.5 903.5,-529.5 1194.5,-529.5 1194.5,-499.5 903.5,-499.5"/>
<text text-anchor="start" x="910.5" y="-510.9" font-family="Arial" font-size="14.00" fill="#000000">sin_executando_publicacao    </text>
<text text-anchor="start" x="1117.4368" y="-510.9" font-family="Arial" font-size="14.00" fill="#666666">[char(1)]</text>
<polygon fill="none" stroke="#000000" points="903.5,-469.5 903.5,-499.5 1194.5,-499.5 1194.5,-469.5 903.5,-469.5"/>
<text text-anchor="start" x="910.5" y="-480.9" font-family="Arial" font-size="14.00" fill="#000000">num_atividades_carregar    </text>
<text text-anchor="start" x="1102.6248" y="-480.9" font-family="Arial" font-size="14.00" fill="#666666">[int(11)]</text>
</g>
</g>
</svg>
